<svg xmlns="http://www.w3.org/2000/svg" viewBox="0 0 53.869999 53.509998" version="1" width="53.87" height="53.51"><rect rx="2" width="50.745" y="1.563" x="1.563" height="50.385" fill="#b3b3b3" fill-rule="evenodd" stroke="#333" stroke-width="3.125" stroke-linejoin="round"/><g transform="translate(-3.116 -3.554)" fill-rule="evenodd" stroke="#333" stroke-linecap="round" stroke-linejoin="round"><path d="M25.96 22.992c-2.403 1.28-3.964 3.706-4.993 6.316h18.198c-.944-2.547-2.39-4.947-4.593-6.316-2.478-.108-5.595 0-8.612 0z" fill="#7f7f7f" stroke-width="1.87471319"/><circle transform="matrix(.6206 0 0 .6206 17.702 3.554)" cx="19.524" cy="22.301" r="12.326" fill="#bfbfbf" stroke-width="3.021"/></g><path d="M12.76 27.584c-.84 0-1.513.674-1.513 1.512v18.116h31.72V29.096c0-.838-.674-1.512-1.51-1.512H12.758z" fill="#999" fill-rule="evenodd" stroke="#333" stroke-width="2.5" stroke-linecap="round" stroke-linejoin="round"/><path d="M18.55 29.705l-9.617-13.27 5.385-2.694" fill="none" stroke="#333" stroke-width="1.25" stroke-linecap="round" stroke-linejoin="round"/><circle cx="13.934" cy="13.741" r="2.308" fill="#7f7f7f" fill-rule="evenodd" stroke="#333" stroke-width="1.25"/><rect rx="2.267" height="4.616" width="36.929" y="24.705" x="8.548" fill="#4c4c4c" fill-rule="evenodd" stroke="#333" stroke-width="2.5" stroke-linejoin="round"/><path d="M18.29 45.03c2.917-1.836 6.143-2.33 7.4-2.043.14-1.242 2.07-3.303 5.54-5.486-4.107 1.048-4.96 1.32-6.74 3.745-3.04.3-3.913 1.192-6.2 3.785zM25.543 36.904c2.02-1.27 4.253-1.612 5.122-1.415.098-.86 1.434-2.287 3.835-3.797-2.842.724-3.433.912-4.664 2.59-2.105.208-2.71.826-4.293 2.62z" fill="#4c4c4c" fill-rule="evenodd" stroke="#333" stroke-width=".625" stroke-linecap="round" stroke-linejoin="round"/></svg>
